HIERARCHY
ROOT Hips
{
	OFFSET 0.000000 0.000000 0.000000
	CHANNELS 6 Xposition Yposition Zposition Zrotation Yrotation Xrotation 
	JOINT LeftUpLeg_virtual
	{
		OFFSET 0.000000 0.000000 0.000000
		CHANNELS 3 Zrotation Yrotation Xrotation
		JOINT LeftUpLeg
		{
			OFFSET 8.479694 -4.795517 -0.379053
			CHANNELS 3 Zrotation Yrotation Xrotation
			JOINT LeftLeg
			{
				OFFSET 0.485052 -32.551468 0.112863
				CHANNELS 3 Zrotation Yrotation Xrotation
				JOINT LeftFoot
				{
					OFFSET 0.438033 -32.635670 -3.012641
					CHANNELS 3 Zrotation Yrotation Xrotation
					JOINT LeftToeBase
					{
						OFFSET 0.970169 -13.225353 11.864223
						CHANNELS 3 Zrotation Yrotation Xrotation
						End Site
						{
							OFFSET 0.000000 0.000000 0.000000
						}
					}
				}
			}
		}
	}
	JOINT RightUpLeg_virtual
	{
		OFFSET 0.000000 0.000000 0.000000
		CHANNELS 3 Zrotation Yrotation Xrotation
		JOINT RightUpLeg
		{
			OFFSET -8.479694 -4.795517 -0.379053
			CHANNELS 3 Zrotation Yrotation Xrotation
			JOINT RightLeg
			{
				OFFSET -0.484100 -32.551483 0.112903
				CHANNELS 3 Zrotation Yrotation Xrotation
				JOINT RightFoot
				{
					OFFSET -0.438985 -32.635651 -3.012681
					CHANNELS 3 Zrotation Yrotation Xrotation
					JOINT RightToeBase
					{
						OFFSET -0.970169 -13.225354 11.864223
						CHANNELS 3 Zrotation Yrotation Xrotation
						End Site
						{
							OFFSET 0.000000 0.000000 0.000000
						}
					}
				}
			}
		}
	}
	JOINT Spine_virtual
	{
		OFFSET 0.000000 0.000000 0.000000
		CHANNELS 3 Zrotation Yrotation Xrotation
		JOINT Spine
		{
			OFFSET 0.000000 7.722015 1.166203
			CHANNELS 3 Zrotation Yrotation Xrotation
			JOINT Spine1
			{
				OFFSET 0.000000 12.024086 0.248766
				CHANNELS 3 Zrotation Yrotation Xrotation
				JOINT Spine2
				{
					OFFSET -0.000000 11.503036 -0.491240
					CHANNELS 3 Zrotation Yrotation Xrotation
					JOINT Neck_virtual
					{
						OFFSET 0.000000 0.000000 0.000000
						CHANNELS 3 Zrotation Yrotation Xrotation
						JOINT Neck
						{
							OFFSET 0.000000 18.430687 -3.123054
							CHANNELS 3 Zrotation Yrotation Xrotation
							JOINT Head
							{
								OFFSET -0.000000 9.051071 1.034021
								CHANNELS 3 Zrotation Yrotation Xrotation
								End Site
								{
									OFFSET 0.000000 0.000000 0.000000
								}
							}
						}
					}
					JOINT LeftShoulder_virtual
					{
						OFFSET 0.000000 0.000000 0.000000
						CHANNELS 3 Zrotation Yrotation Xrotation
						JOINT LeftShoulder
						{
							OFFSET 6.197824 13.665230 -4.064723
							CHANNELS 3 Zrotation Yrotation Xrotation
							JOINT LeftArm
							{
								OFFSET 7.778132 -0.187073 -1.709282
								CHANNELS 3 Zrotation Yrotation Xrotation
								JOINT LeftForeArm
								{
									OFFSET 21.954697 0.000000 -2.041093
									CHANNELS 3 Zrotation Yrotation Xrotation
									JOINT LeftHand
									{
										OFFSET 22.992908 0.000000 -0.870901
										CHANNELS 3 Zrotation Yrotation Xrotation
										End Site
										{
											OFFSET 0.000000 0.000000 0.000000
										}
									}
								}
							}
						}
					}
					JOINT RightShoulder_virtual
					{
						OFFSET 0.000000 0.000000 0.000000
						CHANNELS 3 Zrotation Yrotation Xrotation
						JOINT RightShoulder
						{
							OFFSET -6.197824 13.665230 -4.064723
							CHANNELS 3 Zrotation Yrotation Xrotation
							JOINT RightArm
							{
								OFFSET -7.778132 -0.187073 -1.709282
								CHANNELS 3 Zrotation Yrotation Xrotation
								JOINT RightForeArm
								{
									OFFSET -21.954697 0.000000 -2.041093
									CHANNELS 3 Zrotation Yrotation Xrotation
									JOINT RightHand
									{
										OFFSET -22.992908 0.000000 -0.870901
										CHANNELS 3 Zrotation Yrotation Xrotation
										End Site
										{
											OFFSET 0.000000 0.000000 0.000000
										}
									}
								}
							}
						}
					}
				}
			}
		}
	}
}
MOTION
Frames: 5
Frame Time: 0.033333
-7.461670 80.761566 -5.302355 179.767328 3.442404 179.735800 -3.705776 -1.273911 10.421518 -1.659939 0.729249 -22.014412 10.125913 2.964416 32.866662 0.769467 -10.067517 -18.441379 0.000000 0.000000 0.000000 -2.342278 -1.909752 11.423170 -0.617112 -2.134301 -19.870721 -2.019669 1.449704 30.165353 8.849506 2.575456 -13.044212 0.000000 0.000000 0.000000 2.257870 1.335471 -2.296570 -6.518557 1.214408 -1.781054 0.600129 -2.899219 3.268632 0.035671 0.047070 -0.095311 0.545731 -2.070838 4.692165 -0.547090 1.979146 -4.405326 0.000000 0.000000 0.000000 2.032245 -1.186495 1.485006 -2.805009 6.346174 -8.887551 2.575933 -8.964086 -57.712011 0.825333 -36.164014 -4.238181 0.000000 0.000000 0.000000 -1.826114 0.011777 0.945163 20.550977 -8.617631 -13.236392 -6.024698 1.319649 -58.084543 0.698866 19.190287 7.600423 0.000000 0.000000 0.000000 
-7.477510 80.761230 -5.331689 179.606764 3.698523 179.604824 -3.608890 -1.709247 10.333400 -1.503973 0.302846 -22.074196 10.211841 2.427133 32.762365 0.558091 -10.393167 -18.796850 0.000000 0.000000 0.000000 -2.436964 -1.918237 11.264362 -0.490644 -2.850827 -20.002533 -2.125371 0.881557 31.073392 8.511562 2.169644 -12.926895 0.000000 0.000000 0.000000 2.167046 1.296942 -2.186043 -6.575244 1.269547 -1.699791 0.588026 -2.854348 3.259834 0.056839 0.086132 -0.121730 0.539919 -2.079713 4.634612 -0.569909 1.965445 -4.446863 0.000000 0.000000 0.000000 2.015476 -1.183657 1.461644 -2.817392 6.325720 -8.817430 2.525955 -9.077990 -57.495938 0.828366 -36.259852 -4.178020 0.000000 0.000000 0.000000 -1.814058 0.024799 0.952504 20.554662 -8.612805 -13.484943 -5.999023 1.364940 -58.284347 1.031115 19.359300 7.917241 0.000000 0.000000 0.000000 
-7.469891 80.755844 -5.350769 179.614919 3.778754 179.585754 -3.624988 -1.781425 10.354807 -1.509306 0.304485 -22.072842 10.248108 2.414552 32.814087 0.617586 -10.305410 -18.870774 0.000000 0.000000 0.000000 -2.478481 -1.977552 11.255015 -0.493156 -2.865980 -20.045179 -2.066206 0.882646 31.176675 8.522273 2.230410 -12.885196 0.000000 0.000000 0.000000 2.168331 1.208696 -2.090450 -6.560083 1.286507 -1.653124 0.580243 -2.849183 3.269722 0.055854 0.073493 -0.105240 0.540797 -2.049520 4.616334 -0.617267 1.983581 -4.454306 0.000000 0.000000 0.000000 2.019047 -1.131236 1.465845 -2.922166 6.263935 -8.798166 2.510353 -9.232642 -57.328619 0.832756 -36.184399 -4.161426 0.000000 0.000000 0.000000 -1.757686 -0.046142 0.938379 20.505283 -8.606707 -13.526158 -5.835050 1.435817 -57.967365 0.953336 19.582074 7.707961 0.000000 0.000000 0.000000 
-7.435777 80.750359 -5.358468 179.619386 3.860019 179.600535 -3.655643 -1.867711 10.391794 -1.461479 0.302521 -22.116508 10.253805 2.359534 32.846998 0.684739 -10.211181 -18.964314 0.000000 0.000000 0.000000 -2.430030 -2.096475 11.215205 -0.537190 -2.984900 -20.107493 -2.008204 0.880783 31.290722 8.545714 2.333936 -12.851369 0.000000 0.000000 0.000000 2.168066 1.133894 -1.953555 -6.517346 1.245979 -1.648240 0.594186 -2.845940 3.237467 0.068429 0.055768 -0.126067 0.570446 -2.036773 4.659973 -0.607434 1.907865 -4.438737 0.000000 0.000000 0.000000 2.029977 -1.103739 1.459587 -2.998520 6.167999 -8.765362 2.430435 -9.205504 -57.067381 0.873667 -36.194911 -4.130668 0.000000 0.000000 0.000000 -1.783411 0.054832 1.012618 20.627979 -8.546205 -13.353968 -5.837366 1.365803 -57.999938 1.014270 19.726792 7.557248 0.000000 0.000000 0.000000 
-7.411609 80.749519 -5.362691 179.638374 3.998376 179.615506 -3.695274 -1.829815 10.433245 -1.420947 0.321082 -22.184253 10.271363 2.317718 32.912786 0.712981 -10.134305 -19.070013 0.000000 0.000000 0.000000 -2.465760 -2.065317 11.213349 -0.522821 -3.025429 -20.154022 -1.925233 0.869208 31.311865 8.537698 2.387025 -12.788913 0.000000 0.000000 0.000000 2.148484 1.167864 -1.883203 -6.440342 1.220051 -1.656979 0.562401 -2.777289 3.279338 0.006669 0.076509 -0.078433 0.627977 -1.893161 4.661586 -0.582742 1.830997 -4.432696 0.000000 0.000000 0.000000 2.082547 -1.085813 1.505007 -3.101962 6.058622 -8.735992 2.374107 -9.340856 -56.846886 0.902276 -36.094121 -4.123505 0.000000 0.000000 0.000000 -1.715835 0.067130 0.950611 20.776949 -8.591055 -13.325947 -5.762193 1.171541 -58.251384 1.234946 19.859050 7.581673 0.000000 0.000000 0.000000 
